<svg xmlns="http://www.w3.org/2000/svg" viewBox="0 0 99.97 20.19"><defs><style>.cls-1{fill:#337ab7;}.cls-2{fill:#1d4a68;}</style></defs><title>Asset 2</title><g id="Layer_2" data-name="Layer 2"><g id="Layer_1-2" data-name="Layer 1"><path class="cls-1" d="M16.41,11.59c-.14-2.62-.31-5.8-.3-8.14H16C15.39,5.64,14.6,8,13.66,10.61l-3.33,9.15H8.49l-3.08-9C4.52,8.11,3.78,5.69,3.25,3.45H3.19C3.12,5.8,3,9,2.82,11.78l-.5,8.1H0L1.31,1H4.43l3.21,9.13c.78,2.31,1.41,4.39,1.9,6.36h.07c.5-1.91,1.16-4,2-6.36L15,1h3.11l1.18,18.87h-2.4Z"/><path class="cls-1" d="M29.54,19.88l-.22-1.71h-.07a5.05,5.05,0,0,1-4.15,2A3.86,3.86,0,0,1,21,16.3c0-3.28,2.9-5.08,8.13-5V11A2.78,2.78,0,0,0,26,7.85a6.54,6.54,0,0,0-3.53,1l-.55-1.64A8.44,8.44,0,0,1,26.4,6c4.14,0,5.15,2.83,5.15,5.54v5.07a21.33,21.33,0,0,0,.21,3.24ZM29.15,13c-2.66-.05-5.71.43-5.71,3.05a2.16,2.16,0,0,0,2.3,2.35A3.4,3.4,0,0,0,29,16.1a2.77,2.77,0,0,0,.11-.78Z"/><path class="cls-1" d="M44.13,19.39a9.35,9.35,0,0,1-3.89.78c-4.08,0-6.76-2.78-6.76-6.92A6.89,6.89,0,0,1,40.76,6a7.83,7.83,0,0,1,3.42.72l-.55,1.89A6,6,0,0,0,40.75,8C37.67,8,36,10.31,36,13.13c0,3.13,2,5.06,4.71,5.06a7.22,7.22,0,0,0,3-.65Z"/><path class="cls-2" d="M50.12,15l-1.33,4.85H44.38L50.14,1h5.58L61.6,19.88H57L55.55,15Zm4.8-3.17-1.18-4c-.32-1.11-.66-2.53-1-3.63h-.06c-.27,1.11-.56,2.54-.86,3.64l-1.13,4Z"/><path class="cls-2" d="M75.39,15.49c0,1.78,0,3.25.11,4.39H71.8L71.61,18h-.09a4.87,4.87,0,0,1-4.27,2.24c-2.79,0-4.82-1.74-4.82-6V6.17H66.7v7.37c0,2,.64,3.21,2.15,3.21A2.27,2.27,0,0,0,71,15.25a2.31,2.31,0,0,0,.16-.91V6.17h4.27Z"/><path class="cls-2" d="M82.5,2.27v3.9h3.07V9.32H82.5v5c0,1.66.41,2.42,1.68,2.42a5.62,5.62,0,0,0,1.27-.13l0,3.24a9,9,0,0,1-2.76.36A4.45,4.45,0,0,1,79.51,19c-.79-.81-1.18-2.11-1.18-4.06V9.32H76.51V6.17h1.82V3.23Z"/><path class="cls-2" d="M87,0h4.27V7.83h0A5,5,0,0,1,93,6.41a4.79,4.79,0,0,1,2.22-.54c2.72,0,4.8,1.88,4.8,6v8H95.7V12.35c0-1.8-.62-3-2.2-3a2.24,2.24,0,0,0-2.13,1.51,2.52,2.52,0,0,0-.14.93v8.13H87Z"/></g></g></svg>