<?xml version="1.0" standalone="no"?>
<!DOCTYPE svg PUBLIC "-//W3C//DTD SVG 20010904//EN"
 "http://www.w3.org/TR/2001/REC-SVG-20010904/DTD/svg10.dtd">
<svg version="1.0" xmlns="http://www.w3.org/2000/svg"
 width="1184.000000pt" height="1184.000000pt" viewBox="0 0 1184.000000 1184.000000"
 preserveAspectRatio="xMidYMid meet">
<metadata>
Created by potrace 1.11, written by Peter Selinger 2001-2013
</metadata>
<g transform="translate(0.000000,1184.000000) scale(0.100000,-0.100000)"
fill="#000000" stroke="none">
<path d="M411 8858 c-2 -35 -4 -81 -6 -103 -4 -55 -14 -193 -20 -295 -3 -47
-7 -110 -10 -140 -3 -30 -7 -95 -10 -145 -3 -49 -7 -115 -10 -145 -6 -69 -15
-195 -20 -280 -2 -36 -7 -101 -10 -145 -3 -44 -8 -111 -10 -150 -2 -38 -7 -99
-9 -135 -3 -36 -8 -105 -11 -155 -4 -49 -8 -115 -11 -145 -2 -30 -6 -98 -9
-150 -3 -52 -7 -115 -10 -140 -2 -25 -7 -83 -10 -130 -3 -47 -7 -114 -10 -150
-8 -121 -15 -225 -20 -295 -3 -38 -8 -104 -11 -145 -8 -125 -13 -202 -18 -265
-3 -33 -8 -103 -11 -155 -6 -92 -11 -176 -21 -297 -2 -32 -6 -92 -9 -133 -2
-41 -7 -106 -10 -145 -2 -38 -7 -108 -10 -155 -3 -47 -8 -107 -10 -135 -2 -27
-7 -90 -10 -140 -3 -49 -8 -119 -11 -155 -6 -74 -14 -197 -19 -285 -2 -33 -4
-60 -5 -60 0 0 -3 -31 -5 -70 -8 -128 -14 -219 -21 -310 -7 -93 -7 -101 -19
-275 -3 -58 -8 -130 -10 -160 -10 -129 -15 -200 -19 -272 l-5 -78 369 0 370 0
1 43 c2 44 3 75 13 222 3 50 8 126 11 170 2 44 7 118 10 165 5 85 10 162 20
320 3 47 8 119 10 160 7 130 15 266 20 332 2 35 7 108 10 163 3 55 8 129 10
165 2 36 7 106 10 155 2 50 7 124 10 165 7 105 16 244 20 315 2 33 6 105 9
160 9 143 15 236 21 345 9 172 15 274 20 355 3 44 8 143 11 220 3 77 8 172 9
210 2 39 4 70 5 70 0 0 3 59 5 130 7 187 12 325 21 530 4 99 7 231 8 292 1 62
3 113 6 113 3 0 6 51 7 113 3 241 6 307 13 307 4 0 11 -8 15 -17 6 -15 40
-146 50 -193 1 -8 8 -35 15 -60 7 -25 14 -52 15 -60 2 -8 15 -58 30 -110 14
-52 27 -103 30 -112 2 -9 13 -51 25 -93 12 -42 24 -86 26 -98 7 -29 10 -39 17
-57 4 -8 13 -40 21 -70 33 -123 140 -477 216 -715 23 -71 43 -138 45 -147 2
-9 8 -25 13 -35 6 -10 10 -20 9 -23 0 -3 42 -131 93 -285 50 -154 93 -284 95
-290 1 -5 5 -17 8 -25 8 -18 88 -251 91 -265 3 -11 13 -38 26 -70 4 -11 14
-40 21 -65 7 -25 15 -49 18 -55 3 -5 6 -14 7 -20 2 -5 27 -82 58 -170 94 -274
235 -686 267 -780 17 -49 33 -97 36 -105 4 -8 7 -17 8 -20 0 -3 13 -42 29 -87
15 -45 28 -86 28 -90 0 -5 4 -13 8 -18 5 -6 11 -22 14 -35 4 -20 82 -247 109
-320 3 -8 20 -58 37 -110 17 -52 35 -104 40 -115 8 -18 41 -117 46 -140 10
-38 108 -312 115 -319 4 -5 137 -9 296 -9 l288 -1 22 65 c12 35 23 65 24 67 1
1 2 5 4 10 1 4 7 21 14 37 7 17 14 37 16 45 2 8 9 29 16 45 7 17 13 33 14 38
2 4 4 9 5 12 1 3 3 8 5 13 1 4 5 15 8 25 4 9 10 25 14 35 3 9 7 19 8 22 1 3 4
12 7 20 4 8 29 80 58 160 28 80 54 152 57 160 4 8 7 17 8 20 1 3 6 16 12 30 5
14 23 63 39 110 16 47 31 87 34 90 3 3 6 12 8 20 2 8 19 56 37 105 18 50 47
131 65 180 18 50 42 117 55 150 12 33 29 78 36 100 7 22 17 44 21 50 4 5 8 16
8 25 0 8 6 27 14 41 7 14 16 37 20 52 3 14 11 39 18 54 6 15 12 33 14 38 6 22
35 101 43 120 5 11 16 43 26 70 9 28 20 59 25 70 15 37 41 109 67 185 14 41
29 80 33 85 3 6 15 38 26 73 10 34 21 62 24 62 3 0 6 8 7 18 1 9 7 31 14 47 7
17 13 32 14 35 1 3 4 12 7 20 32 84 83 226 83 230 1 6 27 77 62 169 14 35 26
71 28 80 3 14 62 179 102 286 8 22 16 47 18 55 2 8 4 15 5 15 1 0 3 7 6 15 2
8 31 94 65 190 33 96 61 181 62 188 0 6 4 12 9 12 4 0 7 3 6 8 -3 10 13 73 23
92 6 12 121 352 124 370 2 7 16 53 70 225 56 178 151 497 160 535 18 82 31
110 47 110 10 0 18 -3 19 -7 0 -5 2 -134 4 -288 3 -269 9 -510 20 -775 12
-297 16 -400 20 -475 9 -194 16 -336 20 -415 3 -47 8 -139 11 -205 3 -66 7
-147 9 -180 1 -33 6 -116 9 -185 4 -69 9 -161 12 -205 4 -44 7 -124 8 -177 0
-54 4 -98 7 -98 3 0 5 -19 5 -42 1 -39 5 -117 19 -353 11 -183 16 -274 20
-345 6 -109 14 -255 20 -335 2 -38 7 -122 10 -185 4 -63 8 -140 10 -170 2 -30
7 -109 10 -175 9 -152 12 -204 20 -340 9 -145 13 -215 14 -241 1 -21 2 -21
382 -21 l381 0 -6 116 c-9 147 -14 237 -21 331 -3 41 -8 113 -10 160 -3 47 -7
121 -10 165 -8 118 -14 208 -19 315 -3 52 -8 127 -11 165 -3 39 -8 108 -10
155 -12 190 -14 238 -20 315 -2 44 -7 118 -10 165 -3 47 -7 121 -10 165 -6 89
-12 172 -20 315 -3 52 -8 127 -10 165 -3 39 -7 106 -10 150 -2 44 -7 118 -10
165 -10 153 -15 224 -21 330 -3 58 -8 130 -10 160 -1 30 -6 98 -9 150 -3 52
-7 129 -11 170 -6 81 -12 194 -18 305 -2 39 -7 108 -10 155 -3 47 -8 119 -11
160 -2 41 -7 120 -11 175 -3 55 -8 127 -9 160 -2 33 -6 98 -9 145 -3 47 -8
123 -11 170 -2 47 -7 119 -10 160 -5 70 -7 116 -20 315 -5 93 -13 207 -20 320
-3 44 -7 120 -10 168 -2 48 -7 92 -10 97 -4 6 -190 10 -496 10 l-489 0 -10
-22 c-5 -13 -39 -104 -75 -203 -37 -99 -87 -234 -112 -300 -24 -66 -46 -124
-47 -130 -4 -13 -24 -64 -36 -90 -7 -16 -30 -84 -35 -105 -1 -3 -6 -16 -12
-30 -6 -14 -22 -56 -36 -95 -14 -38 -31 -83 -38 -100 -6 -16 -13 -34 -14 -40
-2 -5 -13 -35 -25 -65 -12 -30 -21 -56 -21 -58 1 -1 -6 -18 -14 -38 -8 -20
-15 -38 -15 -40 0 -1 -5 -15 -12 -31 -6 -15 -12 -32 -13 -38 -2 -5 -42 -113
-89 -239 -47 -126 -86 -233 -86 -238 0 -5 -9 -28 -20 -50 -11 -23 -20 -45 -20
-49 0 -3 -8 -24 -17 -45 -9 -22 -18 -44 -19 -50 -1 -6 -25 -72 -53 -145 -28
-74 -51 -137 -51 -140 0 -4 -8 -24 -17 -45 -9 -22 -18 -43 -19 -49 -3 -14
-122 -335 -134 -360 -13 -29 -52 -137 -55 -155 -2 -8 -4 -16 -5 -17 -2 -2 -3
-6 -5 -10 -1 -5 -5 -15 -8 -23 -8 -19 -58 -164 -103 -300 -19 -58 -39 -114
-44 -125 -5 -11 -14 -38 -20 -60 -6 -22 -15 -49 -20 -60 -9 -21 -152 -463
-156 -480 -1 -6 -16 -55 -33 -110 -17 -55 -32 -104 -32 -110 -1 -5 -7 -26 -15
-45 -7 -19 -19 -55 -25 -80 -16 -57 -13 -47 -28 -100 -7 -25 -14 -49 -15 -55
-1 -5 -4 -14 -7 -20 -4 -5 -12 -35 -20 -65 -17 -69 -15 -62 -21 -80 -9 -23
-37 -132 -41 -157 -2 -12 -6 -26 -10 -29 -4 -4 -7 -16 -7 -26 0 -10 -6 -18
-14 -18 -9 0 -20 22 -30 63 -15 63 -52 207 -61 240 -3 9 -7 25 -10 35 -6 23
-23 84 -35 130 -6 20 -13 44 -15 52 -2 8 -4 15 -5 15 -1 0 -3 7 -5 15 -11 45
-36 137 -42 150 -3 8 -7 20 -8 25 -21 86 -193 648 -265 865 -17 52 -33 102
-35 110 -3 8 -23 69 -45 135 -23 66 -43 127 -45 135 -2 8 -4 15 -5 15 -1 0 -3
7 -5 15 -2 8 -15 47 -29 85 -72 202 -128 362 -131 378 -2 9 -7 23 -12 30 -4 6
-8 17 -9 22 -3 13 -83 243 -94 270 -4 11 -13 34 -18 50 -6 17 -14 39 -18 50
-4 11 -8 22 -8 25 -1 3 -9 25 -18 50 -9 25 -37 106 -63 180 -25 74 -50 144
-55 155 -8 20 -74 206 -112 320 -11 33 -24 69 -29 80 -4 11 -26 74 -49 140
-23 66 -48 138 -57 160 -8 22 -23 65 -33 95 -14 44 -91 262 -116 330 -3 8 -5
15 -4 15 2 0 -25 73 -40 110 -5 11 -31 88 -60 170 -28 83 -56 162 -62 178
l-10 27 -497 0 -496 0 -4 -62z"/>
<path d="M8190 8898 c-5 -13 -23 -70 -40 -128 -31 -102 -43 -144 -111 -360
-18 -58 -33 -107 -32 -110 0 -3 -12 -41 -27 -85 -15 -44 -28 -83 -29 -87 0 -5
-1 -9 -2 -10 0 -2 -2 -10 -4 -18 -2 -8 -27 -89 -55 -180 -53 -170 -89 -287
-94 -305 -5 -19 -57 -190 -66 -215 -15 -44 -72 -234 -74 -247 -1 -7 -5 -16 -9
-19 -4 -4 -7 -18 -7 -31 0 -13 -4 -23 -8 -23 -4 0 -8 -9 -9 -21 -1 -11 -12
-51 -24 -87 -13 -37 -24 -72 -25 -78 -1 -6 -14 -51 -30 -100 -15 -49 -29 -91
-29 -94 -7 -29 -28 -99 -35 -115 -5 -11 -19 -54 -30 -95 -12 -41 -40 -133 -62
-204 -22 -71 -41 -134 -42 -140 -1 -6 -7 -24 -13 -41 -15 -40 -44 -139 -42
-145 0 -3 -6 -23 -15 -45 -8 -22 -31 -94 -51 -160 -42 -138 -98 -321 -127
-413 -11 -34 -21 -68 -22 -75 -2 -7 -6 -19 -9 -27 -15 -41 -77 -249 -77 -259
0 -6 -4 -19 -9 -29 -13 -25 -62 -189 -64 -212 -1 -11 -5 -20 -9 -20 -4 0 -8
-6 -8 -14 0 -7 -14 -58 -31 -112 -73 -234 -90 -290 -94 -309 -3 -11 -9 -31
-14 -45 -5 -14 -21 -65 -36 -115 -35 -117 -35 -119 -33 -125 1 -3 -4 -16 -11
-29 -7 -13 -23 -60 -36 -105 -13 -44 -35 -119 -50 -166 -15 -47 -33 -105 -40
-130 -7 -25 -43 -142 -80 -260 -37 -118 -71 -231 -77 -250 -5 -19 -16 -54 -24
-78 -8 -23 -14 -45 -14 -47 0 -3 317 -5 705 -5 l705 0 6 27 c4 16 29 109 56
208 28 99 63 227 78 285 16 58 42 155 59 215 17 61 33 121 36 135 3 14 10 36
15 50 5 14 12 36 14 50 3 14 10 41 16 60 6 19 13 42 15 50 2 12 54 202 70 260
3 8 15 56 28 105 l23 90 861 3 c681 2 862 -1 870 -10 6 -7 16 -35 22 -63 7
-27 19 -67 27 -88 8 -20 14 -40 15 -45 1 -4 3 -11 5 -17 16 -57 59 -203 74
-255 10 -36 36 -125 58 -197 22 -73 37 -133 35 -133 -3 0 -1 -6 5 -13 5 -6 13
-28 17 -47 4 -19 10 -39 13 -45 4 -5 7 -14 8 -20 2 -9 60 -208 136 -460 16
-55 33 -111 37 -125 l7 -25 732 -3 731 -2 -16 52 c-8 29 -33 109 -55 178 -22
69 -40 130 -41 135 -2 6 -6 16 -10 22 -5 7 -6 13 -3 13 3 0 -2 16 -10 35 -8
19 -14 38 -14 42 -1 5 -12 44 -26 88 -14 44 -27 87 -30 95 -2 8 -20 67 -40
130 -20 63 -44 142 -54 175 -10 33 -32 103 -48 155 -17 52 -43 136 -57 185
-15 50 -31 99 -36 110 -4 11 -22 67 -39 125 -17 58 -35 114 -40 125 -6 16 -39
124 -54 180 -2 6 -6 17 -9 25 -10 26 -37 116 -42 136 -2 10 -13 46 -25 79 -11
33 -23 68 -25 79 -2 10 -15 53 -29 95 -13 42 -36 117 -51 166 -15 50 -29 97
-32 105 -3 8 -7 20 -8 25 -2 6 -17 55 -35 110 -17 55 -50 159 -72 230 -22 72
-51 164 -65 206 -13 43 -26 83 -27 90 -2 8 -8 27 -14 42 -7 16 -12 32 -12 37
0 4 -15 57 -34 116 -19 60 -58 183 -86 274 -28 91 -55 176 -60 190 -5 14 -23
72 -40 130 -18 58 -47 152 -65 210 -86 273 -128 406 -130 420 -2 8 -4 15 -5
15 -1 0 -3 7 -5 15 -2 8 -20 65 -39 125 -19 61 -51 162 -71 225 -20 63 -38
122 -40 130 -3 14 -13 47 -106 340 -24 74 -44 141 -46 148 -6 26 -10 38 -20
62 -6 14 -14 41 -18 60 -4 19 -11 40 -15 45 -5 6 -8 12 -8 15 0 3 -6 25 -13
50 -7 25 -14 50 -15 55 -2 6 -9 30 -17 55 l-14 45 -887 3 -886 2 -10 -22z
m853 -1060 c10 -35 20 -72 23 -83 8 -29 10 -38 17 -55 7 -19 55 -196 63 -230
6 -30 7 -33 24 -90 7 -25 14 -49 16 -55 1 -5 14 -55 29 -110 14 -55 28 -107
30 -115 2 -8 24 -89 49 -180 26 -91 49 -174 51 -184 5 -20 27 -95 47 -156 6
-19 15 -48 19 -65 4 -16 21 -77 39 -135 17 -58 33 -112 35 -120 2 -8 27 -91
55 -185 28 -93 53 -177 55 -185 2 -8 13 -46 25 -85 12 -38 23 -77 25 -85 2 -8
19 -64 36 -123 17 -59 29 -110 25 -114 -3 -3 -305 -7 -671 -7 -647 -1 -665 -1
-659 17 13 41 65 223 69 241 3 10 16 60 31 110 14 50 28 98 30 106 1 8 17 65
35 125 17 61 32 115 34 120 1 6 4 17 7 25 6 15 56 192 63 220 2 8 17 65 35
125 17 61 33 119 36 130 2 11 10 43 19 70 18 60 37 134 41 155 1 8 4 24 7 35
35 140 60 245 63 265 3 14 7 31 10 39 5 14 41 173 50 219 9 47 65 286 69 292
2 3 6 21 9 41 7 47 23 89 34 89 4 0 16 -28 25 -62z"/>
</g>
</svg>
